<svg width="123" height="24" viewBox="0 0 123 24" fill="none" xmlns="http://www.w3.org/2000/svg">
<g clip-path="url(#clip0_855_1977)">
<g clip-path="url(#clip1_855_1977)">
<path d="M46.9301 10.0123H38.9915V2.88083H35.9894V20.1459H38.9915V13.0144H46.9301V20.1459H49.9307V2.88083H46.9301V10.0123Z" fill="#FDFDFD"/>
<path d="M110.651 16.1337C113.297 15.1939 115.196 12.6663 115.196 9.70318C115.196 5.9423 112.136 2.88083 108.375 2.88083H102.755V5.88298H108.375C110.481 5.88298 112.195 7.59715 112.195 9.70318C112.195 11.8092 110.481 13.5234 108.375 13.5234C108.375 13.5234 102.816 13.5187 102.755 13.5234V16.5255H103.819C105.25 16.602 106.616 16.6879 108.537 18.2803C111.465 20.7048 115.01 20.1475 115.01 20.1475V17.3233C115.01 17.3233 112.378 17.6964 110.65 16.1352L110.651 16.1337Z" fill="#FDFDFD"/>
<path d="M92.9443 2.88083C89.1007 2.88083 85.9736 6.00787 85.9736 9.85149V20.1443H88.9758V15.2735H96.9144V20.1443H99.9165V9.85149C99.9165 6.00787 96.7895 2.88083 92.9459 2.88083H92.9443ZM88.9742 12.2713V9.85149C88.9742 7.66272 90.7555 5.88142 92.9443 5.88142C95.1331 5.88142 96.9128 7.66272 96.9128 9.85149V12.2713H88.9742Z" fill="#FDFDFD"/>
<path d="M76.7612 2.88083C72.9176 2.88083 69.7905 6.00787 69.7905 9.85149V20.1443H72.7927V9.85149C72.7927 7.66272 74.574 5.88142 76.7627 5.88142C78.9515 5.88142 80.7328 7.66272 80.7328 9.85149V20.1443H83.735V9.85149C83.735 6.00787 80.6079 2.88083 76.7643 2.88083H76.7612Z" fill="#FDFDFD"/>
<path d="M64.1951 13.1737C64.1951 15.3625 62.4154 17.1438 60.2266 17.1438C58.0378 17.1438 56.2565 15.3625 56.2565 13.1737V2.88083H53.2544V13.1737C53.2544 17.0173 56.3814 20.1443 60.2251 20.1443C64.0687 20.1443 67.1957 17.0173 67.1957 13.1737V2.88083H64.1936V13.1737H64.1951Z" fill="#FDFDFD"/>
<path d="M120.513 20.2014C121.626 20.2014 122.529 19.299 122.529 18.1859C122.529 17.0728 121.626 16.1704 120.513 16.1704C119.4 16.1704 118.498 17.0728 118.498 18.1859C118.498 19.299 119.4 20.2014 120.513 20.2014Z" fill="#6E85F7"/>
<path d="M14.5803 8.13843C10.6812 8.13843 7.48653 4.85659 7.218 0.698578C7.19724 0.376069 6.91902 0.131073 6.59513 0.131073H1.36855C0.813499 0.131073 0.363647 0.580924 0.363647 1.13597V22.6126C0.363647 23.558 1.64261 23.8542 2.05232 23.0043C4.0026 18.9598 7.84226 12.7781 14.5803 8.13981" fill="#6E85F7"/>
<path d="M14.5803 8.13843C18.4795 8.13843 21.6741 4.85659 21.9427 0.698578C21.9634 0.376069 22.2416 0.131073 22.5655 0.131073H27.7921C28.3472 0.131073 28.797 0.580924 28.797 1.13597V22.6126C28.797 23.558 27.5181 23.8542 27.1083 23.0043C25.1581 18.9598 21.3184 12.7781 14.5803 8.13981" fill="#38459D"/>
</g>
</g>
<defs>
<clipPath id="clip0_855_1977">
<rect width="122.273" height="23.6364" fill="white" transform="translate(0.363647)"/>
</clipPath>
<clipPath id="clip1_855_1977">
<rect width="122.273" height="23.6364" fill="white" transform="translate(0.363647)"/>
</clipPath>
</defs>
</svg>
