<svg width="123" height="24" viewBox="0 0 123 24" fill="none" xmlns="http://www.w3.org/2000/svg">
<g clip-path="url(#clip0_855_1981)">
<g clip-path="url(#clip1_855_1981)">
<path d="M46.9301 10.3759H38.9915V3.24448H35.9894V20.5096H38.9915V13.3781H46.9301V20.5096H49.9307V3.24448H46.9301V10.3759Z" fill="#38459D"/>
<path d="M110.651 16.4973C113.297 15.5575 115.196 13.0299 115.196 10.0668C115.196 6.30595 112.136 3.24448 108.375 3.24448H102.755V6.24662H108.375C110.481 6.24662 112.195 7.9608 112.195 10.0668C112.195 12.1729 110.481 13.887 108.375 13.887C108.375 13.887 102.816 13.8824 102.755 13.887V16.8892H103.819C105.25 16.9657 106.616 17.0515 108.537 18.644C111.465 21.0685 115.01 20.5111 115.01 20.5111V17.6869C115.01 17.6869 112.378 18.0601 110.65 16.4989L110.651 16.4973Z" fill="#38459D"/>
<path d="M92.9443 3.24448C89.1007 3.24448 85.9736 6.37152 85.9736 10.2151V20.508H88.9758V15.6371H96.9144V20.508H99.9165V10.2151C99.9165 6.37152 96.7895 3.24448 92.9459 3.24448H92.9443ZM88.9742 12.635V10.2151C88.9742 8.02637 90.7555 6.24506 92.9443 6.24506C95.1331 6.24506 96.9128 8.02637 96.9128 10.2151V12.635H88.9742Z" fill="#38459D"/>
<path d="M76.7612 3.24448C72.9176 3.24448 69.7905 6.37152 69.7905 10.2151V20.508H72.7927V10.2151C72.7927 8.02637 74.574 6.24506 76.7627 6.24506C78.9515 6.24506 80.7328 8.02637 80.7328 10.2151V20.508H83.735V10.2151C83.735 6.37152 80.6079 3.24448 76.7643 3.24448H76.7612Z" fill="#38459D"/>
<path d="M64.1951 13.5373C64.1951 15.7261 62.4154 17.5074 60.2266 17.5074C58.0378 17.5074 56.2565 15.7261 56.2565 13.5373V3.24448H53.2544V13.5373C53.2544 17.381 56.3814 20.508 60.2251 20.508C64.0687 20.508 67.1957 17.381 67.1957 13.5373V3.24448H64.1936V13.5373H64.1951Z" fill="#38459D"/>
<path d="M120.513 20.565C121.626 20.565 122.529 19.6626 122.529 18.5495C122.529 17.4364 121.626 16.534 120.513 16.534C119.4 16.534 118.498 17.4364 118.498 18.5495C118.498 19.6626 119.4 20.565 120.513 20.565Z" fill="#6E85F7"/>
<path d="M14.5803 8.50206C10.6812 8.50206 7.48653 5.22022 7.218 1.06221C7.19724 0.739701 6.91902 0.494705 6.59513 0.494705H1.36855C0.813499 0.494705 0.363647 0.944557 0.363647 1.4996V22.9762C0.363647 23.9216 1.64261 24.2178 2.05232 23.3679C4.0026 19.3234 7.84226 13.1418 14.5803 8.50345" fill="#6E85F7"/>
<path d="M14.5803 8.50206C18.4795 8.50206 21.6741 5.22022 21.9427 1.06221C21.9634 0.739701 22.2416 0.494705 22.5655 0.494705H27.7921C28.3472 0.494705 28.797 0.944557 28.797 1.4996V22.9762C28.797 23.9216 27.5181 24.2178 27.1083 23.3679C25.1581 19.3234 21.3184 13.1418 14.5803 8.50345" fill="#38459D"/>
</g>
</g>
<defs>
<clipPath id="clip0_855_1981">
<rect width="122.273" height="23.6364" fill="white" transform="translate(0.363647 0.363632)"/>
</clipPath>
<clipPath id="clip1_855_1981">
<rect width="122.273" height="23.6364" fill="white" transform="translate(0.363647 0.363632)"/>
</clipPath>
</defs>
</svg>
